<svg xmlns="http://www.w3.org/2000/svg" viewBox="0 0 180 180"><defs><style>.b9cdb735-f10e-4692-8dbc-ab56689798e4{fill:#1f383e;fill-rule:evenodd;}</style></defs><title>logo</title><g id="bf63fdf0-c53a-469b-a393-7dc9490cf1b1" data-name="OBJECTS"><path class="b9cdb735-f10e-4692-8dbc-ab56689798e4" d="M152.16,51.72c-6.75-2.8-6.79-13.25-4.49-17,1.6-2.61,8-4.91,16-8.09-9.73-7.74-23.33-7.41-31.33,3-8.61,11.21-5.63,21.78-9.88,31.47a21.41,21.41,0,0,1-6,7.93l-23.61,21L69.16,69a21.65,21.65,0,0,1-6-7.93c-4.24-9.69-1.26-20.26-9.87-31.47-8-10.42-21.6-10.75-31.33-3,8,3.18,14.35,5.48,16,8.09,2.3,3.78,2.26,14.23-4.5,17-3.37,1.4-11.82-1.89-20.31-6.21a28.14,28.14,0,0,0,3.2,14C21.42,69,33.14,74.67,46.75,73.33c5.12-.5,8.88,2.58,13.9,7.75l19.58,20.16L43.08,134.36l-7.25,6.47c-9.5,8.46-1.68,21.38,7.25,20.86A10.33,10.33,0,0,0,50,158.28l42.82-44.11,42.83,44.11a10.33,10.33,0,0,0,6.87,3.41c8.93.52,16.74-12.4,7.25-20.86l-7.25-6.47-37.15-33.12,19.57-20.16c5-5.17,8.79-8.25,13.91-7.75,13.6,1.34,25.33-4.35,30.48-13.83a28.14,28.14,0,0,0,3.2-14C164,49.83,155.54,53.12,152.16,51.72ZM47.28,152.59a5.19,5.19,0,1,1-1.15-7.26A5.2,5.2,0,0,1,47.28,152.59Zm92.14-7.26a5.2,5.2,0,1,1-1.15,7.26A5.16,5.16,0,0,1,139.42,145.33Z"/></g></svg>